# xmcd CD database file
# Copyright (C) 1993-1998 Ti Kan
#
# Track frame offsets:
#  150
#  16999
#  27384
#  39242
#  52665
#  64829
#  76392
#  91127
#  103158
#  117118
#  132084
#  147994
#  165762
#  179153
#  194255
#  207845
#  223947
#  235706
#  254166
#  272292
#
# Disc length: 3829 seconds
#
# Revision: 1
# Processed by: cddbd v1.4b41PL1 Copyright (c) Steve Scherf et al.
# Submitted via: CDWizzard Release:4.60
#
DISCID=120ef314
DTITLE=Various Artist - A Traditional Family Christmas
DYEAR=1900
DGENRE=
TTITLE0=Silent Night
TTITLE1=Up On A House Top
TTITLE2=Away In A Manger
TTITLE3=Good King Wenceslas
TTITLE4=Amazing Grace
TTITLE5=Here We Come A-Caroling
TTITLE6=Oh Come All Ye Faithful
TTITLE7=Jolly Old Saint Nickolas
TTITLE8=O Come, O Come Emmanuel
TTITLE9=I Saw Three Ships
TTITLE10=Angels We Have Heard On High
TTITLE11=God Rest Ye Marry Gentlemen
TTITLE12=It Came Upon A Midnight Clear
TTITLE13=Hark, THe Herald Angels Sing
TTITLE14=Oh Christmas Tree
TTITLE15=We Three Kings
TTITLE16=Sing We Now Of Christmas
TTITLE17=The First Noel
TTITLE18=Jingle Bells
TTITLE19=What Child Is This
EXTD=
EXTT0=Carlene Carter
EXTT1=Clay Walker
EXTT2=Rhonda Vincent
EXTT3=Kenny Rogers
EXTT4=Laura Vida
EXTT5=Orrall and Wright
EXTT6=Dennis Robbins
EXTT7=Deborah Allen
EXTT8=Doron Norwood
EXTT9=Chad Mullins
EXTT10=
EXTT11=
EXTT12=
EXTT13=
EXTT14=
EXTT15=
EXTT16=
EXTT17=
EXTT18=
EXTT19=
PLAYORDER=
